HIERARCHY
ROOT Hips
{
	OFFSET 0.000000 0.000000 0.000000
	CHANNELS 6 Xposition Yposition Zposition Zrotation Yrotation Xrotation 
	JOINT LeftUpLeg_virtual
	{
		OFFSET 0.000000 0.000000 0.000000
		CHANNELS 3 Zrotation Yrotation Xrotation
		JOINT LeftUpLeg
		{
			OFFSET 10.205400 -3.823500 0.155100
			CHANNELS 3 Zrotation Yrotation Xrotation
			JOINT LeftLeg
			{
				OFFSET 0.708757 -12.982077 0.567790
				CHANNELS 3 Zrotation Yrotation Xrotation
				JOINT LeftFoot
				{
					OFFSET -0.708756 -10.717838 -2.184338
					CHANNELS 3 Zrotation Yrotation Xrotation
					JOINT LeftToeBase
					{
						OFFSET 0.108149 -7.191104 7.560241
						CHANNELS 3 Zrotation Yrotation Xrotation
						End Site
						{
							OFFSET 0.000000 0.000000 0.000000
						}
					}
				}
			}
		}
	}
	JOINT RightUpLeg_virtual
	{
		OFFSET 0.000000 0.000000 0.000000
		CHANNELS 3 Zrotation Yrotation Xrotation
		JOINT RightUpLeg
		{
			OFFSET -10.205400 -3.823500 0.005500
			CHANNELS 3 Zrotation Yrotation Xrotation
			JOINT RightLeg
			{
				OFFSET -0.708756 -12.982134 0.610632
				CHANNELS 3 Zrotation Yrotation Xrotation
				JOINT RightFoot
				{
					OFFSET 0.708754 -10.717769 -1.945823
					CHANNELS 3 Zrotation Yrotation Xrotation
					JOINT RightToeBase
					{
						OFFSET -0.108140 -7.191069 7.372968
						CHANNELS 3 Zrotation Yrotation Xrotation
						End Site
						{
							OFFSET 0.000000 0.000000 0.000000
						}
					}
				}
			}
		}
	}
	JOINT Spine_virtual
	{
		OFFSET 0.000000 0.000000 0.000000
		CHANNELS 3 Zrotation Yrotation Xrotation
		JOINT Spine
		{
			OFFSET 0.000000 6.876099 0.125700
			CHANNELS 3 Zrotation Yrotation Xrotation
			JOINT Spine1
			{
				OFFSET 0.000000 8.022060 0.146608
				CHANNELS 3 Zrotation Yrotation Xrotation
				JOINT Spine2
				{
					OFFSET 0.000000 9.168068 0.167552
					CHANNELS 3 Zrotation Yrotation Xrotation
					JOINT Neck_virtual
					{
						OFFSET 0.000000 0.000000 0.000000
						CHANNELS 3 Zrotation Yrotation Xrotation
						JOINT Neck
						{
							OFFSET 0.000000 10.314075 0.188496
							CHANNELS 3 Zrotation Yrotation Xrotation
							JOINT Head
							{
								OFFSET 0.000000 7.643700 -2.377400
								CHANNELS 3 Zrotation Yrotation Xrotation
								End Site
								{
									OFFSET 0.000000 0.000000 0.000000
								}
							}
						}
					}
					JOINT LeftShoulder_virtual
					{
						OFFSET 0.000000 0.000000 0.000000
						CHANNELS 3 Zrotation Yrotation Xrotation
						JOINT LeftShoulder
						{
							OFFSET 4.392200 8.824978 0.174984
							CHANNELS 3 Zrotation Yrotation Xrotation
							JOINT LeftArm
							{
								OFFSET 8.771219 -2.981674 -0.026999
								CHANNELS 3 Zrotation Yrotation Xrotation
								JOINT LeftForeArm
								{
									OFFSET 8.512804 0.000000 -0.000000
									CHANNELS 3 Zrotation Yrotation Xrotation
									JOINT LeftHand
									{
										OFFSET 18.484802 0.000000 -0.000000
										CHANNELS 3 Zrotation Yrotation Xrotation
										End Site
										{
											OFFSET 0.000000 0.000000 0.000000
										}
									}
								}
							}
						}
					}
					JOINT RightShoulder_virtual
					{
						OFFSET 0.000000 0.000000 0.000000
						CHANNELS 3 Zrotation Yrotation Xrotation
						JOINT RightShoulder
						{
							OFFSET -4.392200 8.824993 0.141379
							CHANNELS 3 Zrotation Yrotation Xrotation
							JOINT RightArm
							{
								OFFSET -8.771282 -2.981682 -0.094208
								CHANNELS 3 Zrotation Yrotation Xrotation
								JOINT RightForeArm
								{
									OFFSET -8.494598 0.000000 0.000000
									CHANNELS 3 Zrotation Yrotation Xrotation
									JOINT RightHand
									{
										OFFSET -18.483803 0.000000 0.000001
										CHANNELS 3 Zrotation Yrotation Xrotation
										End Site
										{
											OFFSET 0.000000 0.000000 0.000000
										}
									}
								}
							}
						}
					}
				}
			}
		}
	}
}
MOTION
Frames: 14
Frame Time: 0.033333
4.611512 36.267811 18.685869 -179.877840 6.663678 179.934763 -2.630931 -2.163048 10.177660 -10.518997 -2.834193 -19.977613 9.093087 7.437507 12.923393 -4.393786 -0.927656 11.687898 0.000000 0.000000 0.000000 2.581531 -0.763035 8.006303 0.164607 4.047626 -7.038832 -8.256800 2.281739 10.109950 8.712183 6.255106 7.069229 0.000000 0.000000 0.000000 2.015685 0.935225 0.785167 -4.610017 2.079289 -8.093971 0.979361 -4.879279 1.869096 -0.002377 -0.005377 0.012307 0.555823 -3.101070 4.364110 0.414458 3.810617 3.498966 0.000000 0.000000 0.000000 1.764909 -2.161660 1.433423 3.392346 -3.747624 -7.275311 -13.959880 30.781641 -24.493928 -6.204254 -30.855120 -1.409036 0.000000 0.000000 0.000000 -1.444619 -1.524745 1.099458 4.947096 -1.095382 -12.057469 30.645969 -40.235476 -31.823880 -0.878069 33.099264 -7.010799 0.000000 0.000000 0.000000 
4.605763 36.257957 18.682669 -179.817666 6.769936 179.878045 -2.623505 -1.953830 10.185538 -10.435538 -2.656208 -19.963859 9.054275 7.741538 12.742152 -4.279515 -0.822683 11.702026 0.000000 0.000000 0.000000 2.607277 -0.898807 7.911797 -0.006610 4.409612 -7.189106 -8.322481 2.982746 9.768955 8.957779 6.371559 6.596510 0.000000 0.000000 0.000000 2.019468 0.942499 0.817881 -4.551120 2.086277 -8.047128 0.998971 -4.869948 1.894745 0.013296 0.000632 -0.003531 0.511412 -2.921560 4.306466 0.436917 3.760246 3.588891 0.000000 0.000000 0.000000 1.717362 -2.109758 1.352763 3.410884 -3.713023 -7.274076 -13.889284 30.870959 -24.474040 -6.224889 -30.947075 -1.349441 0.000000 0.000000 0.000000 -1.504991 -1.524274 1.105721 5.027531 -1.075815 -12.186146 30.662724 -40.315591 -31.801542 -0.841924 33.141908 -6.919079 0.000000 0.000000 0.000000 
4.604515 36.253765 18.667482 -179.929039 6.771302 179.868729 -2.715785 -1.846985 10.251296 -10.330548 -2.737724 -19.967995 8.865774 7.955535 12.665954 -4.221449 -0.791092 11.743051 0.000000 0.000000 0.000000 2.542056 -0.873685 7.966827 0.002359 4.501821 -7.289294 -8.460902 2.933121 9.917837 9.044239 6.415834 6.492596 0.000000 0.000000 0.000000 1.916028 0.993502 0.847431 -4.528901 2.143494 -8.066601 0.978078 -4.811147 1.918514 -0.030193 0.056874 -0.011016 0.569159 -3.221160 4.277100 0.556793 3.673517 3.654453 0.000000 0.000000 0.000000 1.793871 -2.147510 1.362481 3.448083 -3.720678 -7.426723 -13.801778 30.906992 -24.386033 -6.228373 -31.101642 -1.289713 0.000000 0.000000 0.000000 -1.419723 -1.561133 1.009302 5.178031 -1.168776 -12.051207 30.718940 -40.452069 -31.840928 -0.810486 33.202871 -6.865056 0.000000 0.000000 0.000000 
4.603212 36.245277 18.652367 -179.863702 6.547872 179.915761 -2.650405 -2.006681 10.267211 -10.358496 -2.729175 -20.090026 8.933245 8.130471 12.752825 -4.449366 -0.778510 11.689645 0.000000 0.000000 0.000000 2.595120 -0.926207 8.055476 0.014084 4.553612 -7.446423 -8.453659 2.866085 10.138830 8.844315 6.378787 6.318782 0.000000 0.000000 0.000000 1.926577 0.970906 0.834031 -4.435129 2.094139 -8.129155 0.978181 -4.823698 1.876218 -0.000640 0.025634 -0.032973 0.493379 -3.072274 4.299499 0.627502 3.606609 3.879976 0.000000 0.000000 0.000000 1.723966 -2.121502 1.355132 3.443617 -3.744781 -7.316797 -13.683134 30.840223 -24.289645 -6.176592 -31.112785 -1.245033 0.000000 0.000000 0.000000 -1.500300 -1.571268 1.050247 5.277408 -1.223230 -12.031424 30.915472 -40.443780 -32.047545 -0.802117 33.271617 -6.839978 0.000000 0.000000 0.000000 
4.606202 36.237823 18.637383 -179.879630 6.428473 179.973080 -2.658062 -2.038731 10.305221 -10.282356 -2.821417 -20.185471 8.913279 8.361791 12.840932 -4.426801 -0.999411 11.626777 0.000000 0.000000 0.000000 2.582376 -0.947069 8.159480 -0.006990 4.736672 -7.611110 -8.397123 2.957173 10.397249 8.587666 6.349037 6.189060 0.000000 0.000000 0.000000 1.898800 0.957706 0.799389 -4.329142 2.049649 -8.170310 0.954546 -4.851644 1.874413 -0.001567 -0.018729 -0.016498 0.480852 -2.901668 4.272798 0.768127 3.528764 4.083842 0.000000 0.000000 0.000000 1.675097 -2.053471 1.341301 3.412946 -3.728417 -7.105843 -13.495336 30.727679 -24.107446 -6.151455 -31.119776 -1.210822 0.000000 0.000000 0.000000 -1.521676 -1.479089 1.085386 5.447967 -1.189062 -11.923355 31.071999 -40.384398 -32.192563 -0.809101 33.274462 -6.815129 0.000000 0.000000 0.000000 
4.611054 36.231934 18.618666 -179.928097 6.298313 179.921444 -2.713987 -2.118079 10.355980 -10.204823 -2.905365 -20.224180 8.891018 8.416310 13.016058 -4.394766 -0.984831 11.523860 0.000000 0.000000 0.000000 2.523689 -1.008180 8.272145 0.001080 4.888772 -7.740120 -8.328223 2.935636 10.658398 8.342227 6.346502 6.041975 0.000000 0.000000 0.000000 1.847083 0.941002 0.814351 -4.240447 2.037677 -8.145084 0.912172 -4.808763 1.914731 -0.008783 -0.010514 -0.021128 0.479367 -3.026100 4.188426 0.906016 3.438551 4.322806 0.000000 0.000000 0.000000 1.655116 -2.093660 1.285782 3.395509 -3.845269 -7.142428 -13.312527 30.549544 -23.726414 -6.074408 -31.199713 -1.151785 0.000000 0.000000 0.000000 -1.533856 -1.525352 1.019878 5.597295 -1.286414 -11.919235 31.052458 -40.357310 -32.066796 -0.771651 33.354020 -6.711996 0.000000 0.000000 0.000000 
4.622429 36.226677 18.597355 -179.908713 6.405249 179.921280 -2.724455 -1.996617 10.327312 -10.080490 -3.015599 -20.279486 8.898269 8.575569 13.266851 -4.470658 -1.042597 11.266633 0.000000 0.000000 0.000000 2.520028 -0.919787 8.304576 0.030094 5.032574 -7.838383 -8.283649 3.002716 10.918082 8.206424 6.367320 5.976116 0.000000 0.000000 0.000000 1.846128 1.012071 0.772365 -4.110346 2.082343 -8.116321 0.888048 -4.727243 1.936646 -0.033370 0.034039 0.019756 0.482309 -2.983185 4.163999 0.971896 3.319450 4.632778 0.000000 0.000000 0.000000 1.625759 -2.086391 1.313484 3.316832 -3.955169 -7.012059 -13.242364 30.430921 -23.382272 -6.017755 -31.333322 -1.032621 0.000000 0.000000 0.000000 -1.537908 -1.508214 0.983563 5.761595 -1.334039 -11.795817 31.072805 -40.327370 -31.798246 -0.769166 33.522623 -6.635227 0.000000 0.000000 0.000000 
4.648067 36.221729 18.571424 -179.900776 6.362822 179.911991 -2.723995 -2.090476 10.321539 -9.971847 -3.024155 -20.224554 8.873255 8.715770 13.446777 -4.525472 -1.065195 11.153833 0.000000 0.000000 0.000000 2.495231 -0.973473 8.307754 0.090754 5.050195 -7.869815 -8.193681 3.022592 11.129100 8.069844 6.388881 5.880948 0.000000 0.000000 0.000000 1.831464 0.959044 0.774519 -4.002694 2.048963 -8.088323 0.879555 -4.680044 1.977857 -0.009958 0.018731 -0.011744 0.429797 -2.971394 4.180624 1.006661 3.205716 4.847597 0.000000 0.000000 0.000000 1.576281 -1.994535 1.389289 3.175042 -3.975072 -6.914175 -13.375989 30.272963 -23.100303 -5.935711 -31.518212 -0.938087 0.000000 0.000000 0.000000 -1.594785 -1.428273 1.028190 5.926784 -1.433647 -11.622264 31.052366 -40.348076 -31.268838 -0.765384 33.844264 -6.585172 0.000000 0.000000 0.000000 
4.699234 36.216030 18.546108 -179.888714 6.285455 -179.979870 -2.716446 -2.256612 10.209217 -9.844208 -3.101288 -20.226374 8.887491 8.791807 13.708797 -4.630161 -1.127090 10.978659 0.000000 0.000000 0.000000 2.494461 -0.979805 8.216062 0.194610 4.954282 -7.904020 -8.069127 3.003852 11.344666 7.974254 6.379322 5.756486 0.000000 0.000000 0.000000 1.831405 0.950002 0.730829 -3.897452 2.004709 -8.107209 0.871210 -4.631133 1.997739 0.006493 0.007660 -0.031881 0.424127 -2.746935 4.250369 0.913141 3.048118 5.090537 0.000000 0.000000 0.000000 1.545274 -1.914569 1.467342 2.958221 -4.011108 -6.867722 -13.609474 30.213410 -22.323671 -5.775400 -31.912450 -0.826387 0.000000 0.000000 0.000000 -1.624342 -1.359517 1.129527 6.153519 -1.569438 -11.428500 31.039108 -40.405101 -30.508655 -0.764444 34.244718 -6.470219 0.000000 0.000000 0.000000 
4.782818 36.215202 18.535555 -179.971742 6.256741 179.967261 -2.794642 -2.295462 10.124922 -9.655424 -3.119727 -20.204970 8.932160 8.618170 14.054600 -4.645699 -1.120390 10.751214 0.000000 0.000000 0.000000 2.411691 -0.912155 8.149923 0.277626 5.006122 -7.879258 -7.888481 2.759780 11.613276 7.810437 6.279693 5.630573 0.000000 0.000000 0.000000 1.811058 0.938776 0.863541 -3.834127 1.949676 -8.079970 0.852069 -4.529409 2.051129 -0.018877 0.014839 0.002859 0.498137 -2.867808 4.300194 0.789611 2.971521 5.316659 0.000000 0.000000 0.000000 1.624127 -1.849201 1.558239 2.701268 -4.136746 -6.719206 -14.163570 30.079528 -21.637691 -5.627296 -32.477071 -0.699421 0.000000 0.000000 0.000000 -1.526620 -1.270439 1.177257 6.462965 -1.775860 -11.154050 31.188625 -40.435229 -29.648004 -0.844514 34.690585 -6.467232 0.000000 0.000000 0.000000 
4.916420 36.206287 18.525558 -179.978749 6.207965 179.903809 -2.727836 -2.308923 10.104897 -9.376224 -3.433142 -20.199502 8.945138 8.293923 14.358873 -4.675051 -1.150896 10.558843 0.000000 0.000000 0.000000 2.433849 -0.822001 8.137478 0.455109 4.905154 -7.892770 -7.703954 2.261252 12.003430 7.750348 6.234411 5.458814 0.000000 0.000000 0.000000 1.832855 0.943177 1.052636 -3.742557 1.880240 -8.058664 0.880367 -4.422539 2.167453 -0.008725 0.013502 0.020404 0.525822 -2.735585 4.355092 0.530263 2.872824 5.557931 0.000000 0.000000 0.000000 1.646616 -1.739245 1.632233 2.344220 -4.318302 -6.554066 -14.922264 29.912578 -20.304844 -5.467934 -33.156450 -0.512506 0.000000 0.000000 0.000000 -1.501182 -1.150210 1.242968 6.860359 -1.979176 -10.941025 31.420967 -40.495437 -28.584594 -0.835549 35.193052 -6.349667 0.000000 0.000000 0.000000 
5.108153 36.189377 18.519972 -179.889356 6.078686 179.994309 -2.517045 -2.346254 10.025896 -9.131137 -3.686003 -20.309048 9.033631 7.896036 14.581764 -4.760790 -1.185292 10.447511 0.000000 0.000000 0.000000 2.575806 -0.646843 8.152295 0.732640 4.598126 -8.019318 -7.390370 1.914396 12.403409 7.397536 6.025359 5.239252 0.000000 0.000000 0.000000 1.907920 0.969676 1.173288 -3.628860 1.785296 -8.084497 0.933206 -4.310587 2.295373 0.007430 0.004691 -0.012150 0.544233 -2.431555 4.564418 0.132469 2.771999 5.794957 0.000000 0.000000 0.000000 1.651110 -1.614508 1.835751 1.883974 -4.555308 -6.344717 -15.983645 29.777128 -18.356045 -5.259665 -33.973675 -0.257769 0.000000 0.000000 0.000000 -1.517282 -1.037110 1.470901 7.269770 -2.198388 -10.683759 32.026791 -40.432947 -27.512992 -0.896718 35.849928 -6.283444 0.000000 0.000000 0.000000 
5.356799 36.167133 18.488863 179.959543 5.962425 179.884001 -2.542393 -2.305813 10.082572 -8.819563 -3.894880 -20.387174 9.034789 6.795090 15.081112 -4.653227 -1.044168 10.015984 0.000000 0.000000 0.000000 2.502279 -0.421816 8.339730 1.012561 4.398156 -8.073311 -7.095634 0.943014 13.018612 7.185732 6.006806 4.876011 0.000000 0.000000 0.000000 1.827480 0.994364 1.443800 -3.625797 1.649801 -8.009916 0.905407 -4.189299 2.505402 -0.022229 -0.011848 -0.004210 0.653951 -2.585070 4.716691 -0.298562 2.764506 6.064189 0.000000 0.000000 0.000000 1.782075 -1.524559 1.958228 1.347724 -4.873139 -6.093881 -17.390037 29.752727 -15.919340 -5.027793 -35.005218 -0.099545 0.000000 0.000000 0.000000 -1.381823 -0.916116 1.587826 7.811500 -2.417783 -10.511539 32.589039 -40.385273 -25.904706 -0.923773 36.705799 -6.153630 0.000000 0.000000 0.000000 
5.670204 36.133701 18.436682 179.960048 6.087093 -179.979610 -2.396829 -2.251108 10.054492 -8.329566 -4.363497 -20.554268 9.029665 5.937355 15.616355 -4.619687 -0.944740 9.344080 0.000000 0.000000 0.000000 2.699507 -0.141760 8.308574 1.396870 3.933650 -8.322161 -6.863930 0.442968 13.971306 6.887016 6.024568 4.235169 0.000000 0.000000 0.000000 1.807248 1.077014 1.525998 -3.590226 1.519768 -8.004439 0.976093 -4.050362 2.691442 0.006420 -0.007570 0.026652 0.626280 -2.319415 4.976486 -0.843206 2.766936 6.403192 0.000000 0.000000 0.000000 1.772951 -1.263114 2.244690 0.786458 -5.222536 -5.907532 -19.275728 29.790867 -13.199200 -4.846436 -36.181995 0.234537 0.000000 0.000000 0.000000 -1.422767 -0.726395 1.808564 8.457469 -2.551676 -10.069083 33.366540 -40.316674 -23.886097 -1.047212 37.772664 -6.101110 0.000000 0.000000 0.000000 
